<svg width="126" height="19" viewBox="0 0 126 19" fill="none" xmlns="http://www.w3.org/2000/svg">
<path d="M0.852273 3.58807V0.545454H15.1875V3.58807H9.84375V18H6.19602V3.58807H0.852273ZM22.2676 18.2557C20.921 18.2557 19.7619 17.983 18.7903 17.4375C17.8244 16.8864 17.0801 16.108 16.5574 15.1023C16.0346 14.0909 15.7733 12.8949 15.7733 11.5142C15.7733 10.1676 16.0346 8.9858 16.5574 7.96875C17.0801 6.9517 17.8159 6.15909 18.7647 5.59091C19.7193 5.02273 20.8386 4.73864 22.1227 4.73864C22.9863 4.73864 23.7903 4.87784 24.5346 5.15625C25.2846 5.42898 25.938 5.84091 26.4949 6.39205C27.0574 6.94318 27.4949 7.63636 27.8074 8.47159C28.1199 9.30114 28.2761 10.2727 28.2761 11.3864V12.3835H17.2221V10.1335H24.8585C24.8585 9.6108 24.7449 9.14773 24.5176 8.74432C24.2903 8.34091 23.975 8.02557 23.5716 7.7983C23.1738 7.56534 22.7108 7.44886 22.1824 7.44886C21.6312 7.44886 21.1426 7.5767 20.7164 7.83239C20.296 8.08239 19.9664 8.42045 19.7278 8.84659C19.4892 9.26705 19.367 9.7358 19.3613 10.2528V12.392C19.3613 13.0398 19.4807 13.5994 19.7193 14.071C19.9636 14.5426 20.3074 14.9062 20.7505 15.1619C21.1937 15.4176 21.7193 15.5455 22.3272 15.5455C22.7307 15.5455 23.1 15.4886 23.4352 15.375C23.7704 15.2614 24.0574 15.0909 24.296 14.8636C24.5346 14.6364 24.7164 14.358 24.8414 14.0284L28.1994 14.25C28.0289 15.0568 27.6795 15.7614 27.1511 16.3636C26.6284 16.9602 25.9522 17.4261 25.1227 17.7614C24.2988 18.0909 23.3471 18.2557 22.2676 18.2557ZM37.2802 18.2557C35.9393 18.2557 34.7859 17.9716 33.82 17.4034C32.8597 16.8295 32.1211 16.0341 31.6041 15.017C31.0927 14 30.837 12.8295 30.837 11.5057C30.837 10.1648 31.0955 8.98864 31.6126 7.97727C32.1353 6.96023 32.8768 6.16761 33.837 5.59943C34.7972 5.02557 35.9393 4.73864 37.2632 4.73864C38.4052 4.73864 39.4052 4.94602 40.2632 5.36079C41.1211 5.77557 41.8001 6.35795 42.3001 7.10795C42.8001 7.85795 43.0757 8.73864 43.1268 9.75H39.7007C39.6041 9.09659 39.3484 8.57102 38.9336 8.1733C38.5245 7.76989 37.9876 7.56818 37.3228 7.56818C36.7603 7.56818 36.2688 7.72159 35.8484 8.02841C35.4336 8.32955 35.1097 8.76989 34.8768 9.34943C34.6438 9.92898 34.5274 10.6307 34.5274 11.4545C34.5274 12.2898 34.641 13 34.8683 13.5852C35.1012 14.1705 35.4279 14.6165 35.8484 14.9233C36.2688 15.2301 36.7603 15.3835 37.3228 15.3835C37.7376 15.3835 38.1097 15.2983 38.4393 15.1278C38.7745 14.9574 39.0501 14.7102 39.266 14.3864C39.4876 14.0568 39.6325 13.6619 39.7007 13.2017H43.1268C43.07 14.2017 42.7972 15.0824 42.3086 15.8438C41.8257 16.5994 41.158 17.1903 40.3058 17.6165C39.4535 18.0426 38.445 18.2557 37.2802 18.2557ZM49.802 10.4318V18H46.1714V0.545454H49.6998V7.21875H49.8532C50.1486 6.44602 50.6259 5.84091 51.285 5.40341C51.9441 4.96023 52.7708 4.73864 53.7651 4.73864C54.6742 4.73864 55.4668 4.9375 56.143 5.33523C56.8248 5.72727 57.3532 6.29261 57.7282 7.03125C58.1089 7.7642 58.2964 8.64205 58.2907 9.66477V18H54.66V10.3125C54.6657 9.50568 54.4611 8.87784 54.0464 8.42898C53.6373 7.98011 53.0634 7.75568 52.3248 7.75568C51.8305 7.75568 51.393 7.8608 51.0123 8.07102C50.6373 8.28125 50.3418 8.58807 50.1259 8.99148C49.9157 9.3892 49.8077 9.86932 49.802 10.4318ZM71.4049 5.56534C71.3367 4.87784 71.0441 4.34375 70.527 3.96307C70.01 3.58239 69.3083 3.39204 68.4219 3.39204C67.8196 3.39204 67.3111 3.47727 66.8963 3.64773C66.4816 3.8125 66.1634 4.04261 65.9418 4.33807C65.7259 4.63352 65.6179 4.96875 65.6179 5.34375C65.6066 5.65625 65.6719 5.92898 65.814 6.16193C65.9617 6.39489 66.1634 6.59659 66.4191 6.76705C66.6747 6.93182 66.9702 7.0767 67.3054 7.2017C67.6407 7.32102 67.9986 7.4233 68.3793 7.50852L69.9475 7.88352C70.7088 8.05398 71.4077 8.28125 72.0441 8.56534C72.6804 8.84943 73.2316 9.19886 73.6975 9.61364C74.1634 10.0284 74.5242 10.517 74.7799 11.0795C75.0412 11.642 75.1747 12.2869 75.1804 13.0142C75.1747 14.0824 74.902 15.0085 74.3622 15.7926C73.8282 16.571 73.0554 17.1761 72.0441 17.608C71.0384 18.0341 69.8253 18.2472 68.4049 18.2472C66.9958 18.2472 65.7685 18.0312 64.723 17.5994C63.6833 17.1676 62.8708 16.5284 62.2855 15.6818C61.706 14.8295 61.402 13.7756 61.3736 12.5199H64.9446C64.9844 13.1051 65.152 13.5937 65.4475 13.9858C65.7486 14.3722 66.1492 14.6648 66.6492 14.8636C67.1549 15.0568 67.7259 15.1534 68.3622 15.1534C68.9872 15.1534 69.5299 15.0625 69.9901 14.8807C70.456 14.6989 70.8168 14.446 71.0725 14.1222C71.3282 13.7983 71.456 13.4261 71.456 13.0057C71.456 12.6136 71.3395 12.2841 71.1066 12.017C70.8793 11.75 70.5441 11.5227 70.1009 11.3352C69.6634 11.1477 69.1265 10.9773 68.4901 10.8239L66.5895 10.3466C65.1179 9.98864 63.956 9.42898 63.1037 8.66761C62.2514 7.90625 61.8282 6.88068 61.8338 5.59091C61.8282 4.53409 62.1094 3.6108 62.6776 2.82102C63.2515 2.03125 64.0384 1.41477 65.0384 0.971591C66.0384 0.528409 67.1747 0.306818 68.4475 0.306818C69.7429 0.306818 70.8736 0.528409 71.8395 0.971591C72.8111 1.41477 73.5668 2.03125 74.1066 2.82102C74.6463 3.6108 74.9247 4.52557 74.9418 5.56534H71.4049ZM85.2776 4.90909V7.63636H77.394V4.90909H85.2776ZM79.1838 1.77273H82.8145V13.9773C82.8145 14.3125 82.8656 14.5739 82.9679 14.7614C83.0702 14.9432 83.2122 15.071 83.394 15.1449C83.5815 15.2187 83.7974 15.2557 84.0418 15.2557C84.2122 15.2557 84.3827 15.2415 84.5531 15.2131C84.7236 15.179 84.8543 15.1534 84.9452 15.1364L85.5162 17.8381C85.3344 17.8949 85.0787 17.9602 84.7491 18.0341C84.4196 18.1136 84.019 18.1619 83.5474 18.179C82.6724 18.2131 81.9054 18.0966 81.2463 17.8295C80.5929 17.5625 80.0844 17.1477 79.7207 16.5852C79.3571 16.0227 79.1781 15.3125 79.1838 14.4545V1.77273ZM94.1368 18.2557C92.8129 18.2557 91.668 17.9744 90.7021 17.4119C89.7419 16.8437 89.0004 16.054 88.4777 15.0426C87.9549 14.0256 87.6936 12.8466 87.6936 11.5057C87.6936 10.1534 87.9549 8.97159 88.4777 7.96023C89.0004 6.94318 89.7419 6.15341 90.7021 5.59091C91.668 5.02273 92.8129 4.73864 94.1368 4.73864C95.4606 4.73864 96.6027 5.02273 97.5629 5.59091C98.5288 6.15341 99.2731 6.94318 99.7959 7.96023C100.319 8.97159 100.58 10.1534 100.58 11.5057C100.58 12.8466 100.319 14.0256 99.7959 15.0426C99.2731 16.054 98.5288 16.8437 97.5629 17.4119C96.6027 17.9744 95.4606 18.2557 94.1368 18.2557ZM94.1538 15.4432C94.7561 15.4432 95.2589 15.2727 95.6623 14.9318C96.0657 14.5852 96.3697 14.1136 96.5743 13.517C96.7845 12.9205 96.8896 12.2415 96.8896 11.4801C96.8896 10.7188 96.7845 10.0398 96.5743 9.44318C96.3697 8.84659 96.0657 8.375 95.6623 8.02841C95.2589 7.68182 94.7561 7.50852 94.1538 7.50852C93.5459 7.50852 93.0345 7.68182 92.6197 8.02841C92.2106 8.375 91.901 8.84659 91.6907 9.44318C91.4862 10.0398 91.3839 10.7188 91.3839 11.4801C91.3839 12.2415 91.4862 12.9205 91.6907 13.517C91.901 14.1136 92.2106 14.5852 92.6197 14.9318C93.0345 15.2727 93.5459 15.4432 94.1538 15.4432ZM103.661 18V4.90909H107.181V7.19318H107.317C107.556 6.38068 107.956 5.76705 108.519 5.35227C109.081 4.93182 109.729 4.72159 110.462 4.72159C110.644 4.72159 110.84 4.73295 111.05 4.75568C111.26 4.77841 111.445 4.80966 111.604 4.84943V8.07102C111.433 8.01989 111.198 7.97443 110.897 7.93466C110.595 7.89489 110.32 7.875 110.07 7.875C109.536 7.875 109.058 7.99148 108.638 8.22443C108.223 8.4517 107.894 8.76989 107.649 9.17898C107.411 9.58807 107.291 10.0597 107.291 10.5938V18H103.661ZM119.558 18.2557C118.211 18.2557 117.052 17.983 116.08 17.4375C115.114 16.8864 114.37 16.108 113.847 15.1023C113.325 14.0909 113.063 12.8949 113.063 11.5142C113.063 10.1676 113.325 8.9858 113.847 7.96875C114.37 6.9517 115.106 6.15909 116.055 5.59091C117.009 5.02273 118.129 4.73864 119.413 4.73864C120.276 4.73864 121.08 4.87784 121.825 5.15625C122.575 5.42898 123.228 5.84091 123.785 6.39205C124.347 6.94318 124.785 7.63636 125.097 8.47159C125.41 9.30114 125.566 10.2727 125.566 11.3864V12.3835H114.512V10.1335H122.148C122.148 9.6108 122.035 9.14773 121.808 8.74432C121.58 8.34091 121.265 8.02557 120.862 7.7983C120.464 7.56534 120.001 7.44886 119.472 7.44886C118.921 7.44886 118.433 7.5767 118.006 7.83239C117.586 8.08239 117.256 8.42045 117.018 8.84659C116.779 9.26705 116.657 9.7358 116.651 10.2528V12.392C116.651 13.0398 116.771 13.5994 117.009 14.071C117.254 14.5426 117.597 14.9062 118.041 15.1619C118.484 15.4176 119.009 15.5455 119.617 15.5455C120.021 15.5455 120.39 15.4886 120.725 15.375C121.06 15.2614 121.347 15.0909 121.586 14.8636C121.825 14.6364 122.006 14.358 122.131 14.0284L125.489 14.25C125.319 15.0568 124.97 15.7614 124.441 16.3636C123.918 16.9602 123.242 17.4261 122.413 17.7614C121.589 18.0909 120.637 18.2557 119.558 18.2557Z" fill="#FAFAFA"/>
</svg>
